Coordinates
version=1
nRows=60
nColumns=12
inDegrees=yes

Units are S.I. units (second, meters, Newtons, ...)
Angles are in degrees

endheader
time	SC_y	SC_z	SC_x	AC_y	AC_z	AC_x	GH_y	GH_z	GH_yy	EL_x	PS_y
       0.0              -27.42          36.45          48.82          30.83          1.701         -5.197          -37.2          54.35          23.03          38.27          138.6
   0.02627              -27.42          36.45          48.82          30.83            1.7         -5.198         -37.21          54.35          23.02          38.29          138.6
   0.05255              -27.42          36.45          48.81          30.83            1.7         -5.198         -37.22          54.36           23.0           38.3          138.6
   0.07882              -27.42          36.45           48.8          30.83          1.699         -5.199         -37.23          54.36          22.98          38.31          138.6
    0.1051              -27.42          36.45          48.79          30.83          1.699           -5.2         -37.24          54.37          22.96          38.33          138.6
    0.1314              -27.43          36.45          48.79          30.83          1.698           -5.2         -37.26          54.37          22.94          38.35          138.6
    0.1576              -27.43          36.45          48.78          30.83          1.698         -5.201         -37.27          54.38          22.92          38.36          138.6
    0.1839              -27.43          36.44          48.77          30.83          1.697         -5.202         -37.28          54.38           22.9          38.38          138.6
    0.2102              -27.43          36.44          48.76          30.83          1.696         -5.203          -37.3          54.39          22.88           38.4          138.5
    0.2365              -27.44          36.44          48.74          30.83          1.696         -5.203         -37.32          54.39          22.85          38.42          138.5
    0.2627              -27.44          36.44          48.73          30.83          1.695         -5.204         -37.33           54.4          22.83          38.45          138.5
     0.289              -27.44          36.44          48.72          30.83          1.694         -5.205         -37.35          54.41           22.8          38.47          138.5
    0.3153              -27.45          36.44           48.7          30.83          1.693         -5.207         -37.37          54.42          22.77           38.5          138.5
    0.3416              -27.45          36.43          48.69          30.83          1.692         -5.208         -37.39          54.42          22.73          38.53          138.5
    0.3678              -27.45          36.43          48.67          30.83          1.691         -5.209         -37.42          54.43           22.7          38.56          138.5
    0.3941              -27.46          36.43          48.65          30.83           1.69         -5.211         -37.44          54.44          22.66          38.59          138.5
    0.4204              -27.46          36.43          48.64          30.83          1.689         -5.212         -37.47          54.45          22.61          38.63          138.5
    0.4467              -27.47          36.42          48.61          30.83          1.687         -5.214          -37.5          54.47          22.56          38.67          138.5
    0.4729              -27.47          36.42          48.59          30.83          1.686         -5.216         -37.54          54.48          22.51          38.72          138.5
    0.4992              -27.48          36.41          48.57          30.83          1.684         -5.218         -37.57          54.49          22.46          38.76          138.4
    0.5255              -27.48          36.41          48.54          30.83          1.682          -5.22         -37.61          54.51           22.4          38.82          138.4
    0.5518              -27.49          36.41          48.51          30.83           1.68         -5.222         -37.66          54.53          22.33          38.88          138.4
     0.578               -27.5           36.4          48.47          30.83          1.678         -5.225         -37.71          54.54          22.25          38.94          138.4
    0.6043              -27.51           36.4          48.43          30.83          1.676         -5.228         -37.76          54.57          22.17          39.01          138.4
    0.6306              -27.52          36.39          48.39          30.83          1.673         -5.231         -37.82          54.59          22.08          39.09          138.3
    0.6569              -27.53          36.38          48.35          30.83           1.67         -5.235         -37.89          54.61          21.97          39.18          138.3
    0.6831              -27.54          36.38          48.29          30.83          1.666         -5.239         -37.96          54.64          21.86          39.28          138.3
    0.7094              -27.56          36.37          48.23          30.84          1.663         -5.244         -38.05          54.68          21.73          39.39          138.3
    0.7357              -27.57          36.36          48.17          30.84          1.658         -5.249         -38.14          54.71          21.58          39.52          138.2
     0.762              -27.59          36.35          48.09          30.84          1.653         -5.255         -38.25          54.75          21.41          39.66          138.2
    0.7882              -27.61          36.33          48.01          30.84          1.648         -5.262         -38.38           54.8          21.22          39.82          138.1
    0.8145              -27.63          36.32          47.91          30.84          1.641          -5.27         -38.52          54.86           21.0          40.01          138.1
    0.8408              -27.66           36.3          47.79          30.84          1.634         -5.279         -38.68          54.92          20.75          40.23          138.0
    0.8671              -27.69          36.28          47.66          30.84          1.625         -5.289         -38.87          54.99          20.45          40.48          137.9
    0.8933              -27.73          36.26           47.5          30.84          1.615         -5.302          -39.1          55.08          20.11          40.77          137.9
    0.9196              -27.77          36.23          47.32          30.84          1.603         -5.316         -39.36          55.18           19.7          41.12          137.8
    0.9459              -27.82           36.2           47.1          30.84          1.589         -5.333         -39.67           55.3          19.22          41.53          137.6
    0.9722              -27.88          36.16          46.84          30.85          1.572         -5.354         -40.05          55.45          18.65          42.02          137.5
    0.9984              -27.95          36.12          46.53          30.85          1.552         -5.379          -40.5          55.62          17.95          42.62          137.3
     1.025              -28.04          36.06          46.14          30.85          1.527          -5.41         -41.05          55.83          17.09          43.35          137.1
     1.051              -28.15          35.99          45.66          30.86          1.496         -5.447         -41.74           56.1          16.04          44.25          136.9
     1.077              -28.29           35.9          45.07          30.86          1.457         -5.495         -42.59          56.43          14.73          45.38          136.5
     1.104              -28.47          35.79          44.32          30.87          1.409         -5.554         -43.66          56.84          13.07          46.79          136.1
      1.13              -28.69          35.65          43.37          30.88          1.347         -5.629         -45.03          57.37          10.97          48.59          135.6
     1.156              -28.97          35.48          42.15          30.89          1.268         -5.726         -46.78          58.04          8.274           50.9          134.9
     1.182              -29.33          35.25          40.59           30.9          1.167         -5.849         -49.02           58.9          4.818          53.85          134.1
     1.209               -29.8          34.96          38.59          30.91          1.037         -6.007         -51.88          60.01         0.4036          57.63          133.0
     1.235              -30.38          34.59          36.08          30.94         0.8747         -6.206         -55.49          61.39         -5.147          62.38          131.6
     1.261              -31.09          34.14          33.02          30.96         0.6764         -6.448         -59.87          63.08         -11.91          68.16          129.9
     1.287              -31.92          33.62          29.48          30.99         0.4465         -6.729         -64.96          65.04         -19.75          74.87          128.0
     1.314              -32.81          33.06          25.64          31.02         0.1977         -7.033         -70.47          67.17         -28.24          82.13          125.9
      1.34               -33.7           32.5           21.8          31.05       -0.05124         -7.337         -75.98          69.29         -36.73          89.39          123.8
     1.366              -34.53          31.98          18.26          31.08        -0.2811         -7.618         -81.07          71.25         -44.57           96.1          121.9
     1.393              -35.24          31.53           15.2          31.11        -0.4794          -7.86         -85.46          72.94         -51.33          101.9          120.2
     1.419              -35.83          31.17          12.69          31.13        -0.6421         -8.059         -89.06          74.33         -56.88          106.6          118.8
     1.445              -36.29          30.87          10.69          31.14        -0.7716         -8.217         -91.92          75.43          -61.3          110.4          117.7
     1.471              -36.65          30.64           9.13          31.16        -0.8729         -8.341         -94.16          76.29         -64.75          113.4          116.9
     1.498              -36.94          30.47          7.912          31.17        -0.9518         -8.437         -95.91          76.97         -67.45          115.7          116.2
     1.524              -37.16          30.33          6.961          31.17         -1.014         -8.512         -97.28          77.49         -69.55          117.5          115.7
      1.55              -37.33          30.22          6.213          31.18         -1.062         -8.572         -98.35          77.91         -71.21          118.9          115.3
